<svg width="255" height="255" viewBox="0 0 255 255" fill="none" xmlns="http://www.w3.org/2000/svg">
<g clip-path="url(#clip0_133_1538)">
<path d="M201.025 63.8563C198.9 57.5875 192.95 53.125 185.938 53.125H69.0625C62.05 53.125 56.2062 57.5875 53.975 63.8563L31.875 127.5V212.5C31.875 218.344 36.6562 223.125 42.5 223.125H53.125C58.9688 223.125 63.75 218.344 63.75 212.5V201.875H191.25V212.5C191.25 218.344 196.031 223.125 201.875 223.125H212.5C218.344 223.125 223.125 218.344 223.125 212.5V127.5L201.025 63.8563ZM72.7812 74.375H182.112L193.587 107.419H61.3062L72.7812 74.375ZM201.875 180.625H53.125V127.5H201.875V180.625Z" fill="black"/>
<path d="M79.6875 170C88.4895 170 95.625 162.865 95.625 154.062C95.625 145.26 88.4895 138.125 79.6875 138.125C70.8855 138.125 63.75 145.26 63.75 154.062C63.75 162.865 70.8855 170 79.6875 170Z" fill="black"/>
<path d="M175.312 170C184.115 170 191.25 162.865 191.25 154.062C191.25 145.26 184.115 138.125 175.312 138.125C166.51 138.125 159.375 145.26 159.375 154.062C159.375 162.865 166.51 170 175.312 170Z" fill="black"/>
</g>
<defs>
<clipPath id="clip0_133_1538">
<rect width="255" height="255" fill="white"/>
</clipPath>
</defs>
</svg>
